<?xml version="1.0" encoding="UTF-8" standalone="no"?>
<!-- Created with Inkscape (http://www.inkscape.org/) -->

<svg
   version="1.1"
   id="svg1"
   width="1413.3333"
   height="1706.6667"
   viewBox="0 0 1413.3333 1706.6667"
   sodipodi:docname="446a.svg"
   inkscape:version="1.3.2 (091e20ef0f, 2023-11-25)"
   xmlns:inkscape="http://www.inkscape.org/namespaces/inkscape"
   xmlns:sodipodi="http://sodipodi.sourceforge.net/DTD/sodipodi-0.dtd"
   xmlns="http://www.w3.org/2000/svg"
   xmlns:svg="http://www.w3.org/2000/svg">
  <defs
     id="defs1" />
  <sodipodi:namedview
     id="namedview1"
     pagecolor="#ffffff"
     bordercolor="#000000"
     borderopacity="0.25"
     inkscape:showpageshadow="2"
     inkscape:pageopacity="0.0"
     inkscape:pagecheckerboard="0"
     inkscape:deskcolor="#d1d1d1"
     showgrid="false"
     inkscape:zoom="0.47167967"
     inkscape:cx="705.98761"
     inkscape:cy="853.33337"
     inkscape:window-width="1920"
     inkscape:window-height="1011"
     inkscape:window-x="0"
     inkscape:window-y="0"
     inkscape:window-maximized="1"
     inkscape:current-layer="layer1" />
  <g
     inkscape:groupmode="layer"
     id="layer1"
     inkscape:label="Layer 1">
    <path
       style="fill:#000000"
       d="m 612.72472,1705.4274 c -0.42128,-0.6816 2.39331,-4.9095 6.25464,-9.3952 3.86133,-4.4856 10.23899,-11.8779 14.17257,-16.4273 7.9004,-9.1371 13.48165,-19.6056 13.50167,-25.3246 0.019,-5.417 -4.67453,-13.7521 -11.45406,-20.341 -3.25908,-3.1675 -16.73758,-13.0663 -29.95222,-21.9973 -13.21464,-8.9311 -31.26648,-21.5716 -40.11519,-28.0901 -8.84871,-6.5185 -16.63143,-11.8518 -17.29492,-11.8518 -3.19563,0 10.38008,23.0674 19.54777,33.2149 2.70891,2.9985 4.53836,5.4517 4.06545,5.4517 -1.98046,0 -18.25504,-8.8436 -28.78379,-15.6411 -7.16005,-4.6226 -16.73406,-12.7867 -26,-22.1712 -16.54645,-16.7582 -24.99534,-29.1251 -42.94083,-62.8543 -6.24268,-11.7334 -17.63237,-30.9334 -25.31043,-42.6667 -23.54725,-35.9841 -40.7727,-74.6762 -46.30007,-104 -5.27786,-28.0001 -5.03643,-27.1451 -6.40033,-22.6667 -1.84529,6.0592 -0.12402,34.8992 3.0031,50.3172 6.98488,34.4383 22.35649,66.2975 45.76497,94.8524 4.13431,5.0432 7.51692,9.7337 7.51692,10.4232 0,1.8234 -4.47208,0.2845 -17.99999,-6.1942 -44.79647,-21.4534 -85.3199,-71.4468 -103.29395,-127.4327 -4.21238,-13.1207 -6.09557,-17.299 -7.79662,-17.2984 -3.72046,0 -16.68701,11.1172 -23.42653,20.0827 -21.38149,28.4437 -34.14956,62.1262 -34.14956,90.0875 0,7.6059 -0.54418,13.829 -1.20929,13.829 -1.77221,0 -11.59725,-31.7639 -14.83822,-47.9714 -1.53661,-7.6842 -3.3268,-23.5842 -3.97821,-35.3333 -0.65141,-11.7491 -1.57049,-23.2289 -2.0424,-25.5106 -1.13755,-5.5003 0.87149,-9.0842 13.85888,-24.7225 5.87909,-7.0791 10.33125,-13.2291 9.89369,-13.6666 -0.43756,-0.4376 -4.84278,-0.7956 -9.78938,-0.7956 -30.37706,0 -56.58107,-13.5142 -66.90669,-34.5059 -4.0424,-8.218 -4.32171,-9.6921 -4.32171,-22.8067 0,-12.9119 0.31633,-14.6534 4,-22.0207 4.31345,-8.6269 10.11319,-13.5372 17.149,-14.519 2.30138,-0.3211 8.78092,-1.1569 14.39897,-1.8572 12.25319,-1.5273 17.01571,-4.4815 21.21746,-13.1612 4.31853,-8.9209 3.99734,-19.4754 -0.86453,-28.4083 -12.78304,-23.4866 -45.77688,-34.3642 -74.28149,-24.4894 l -10.38059,3.5962 -9.61941,-3.0429 c -14.12485,-4.468 -27.67078,-11.2705 -33.26804,-16.7065 -12.67812,-12.3128 -8.76652,-26.3151 13.64644,-48.8499 11.00554,-11.0653 12.94131,-11.8952 27.74789,-11.8952 14.78152,0 25.47944,7.6226 29.62025,21.1053 2.80122,9.1209 2.83658,9.1575 4.73365,4.8947 0.97906,-2.2 1.80718,-6.7613 1.84026,-10.1361 0.0838,-8.5522 -3.99811,-14.2269 -13.73314,-19.0917 -11.71091,-5.8522 -24.0774,-6.2271 -42.99279,-1.3033 -28.03112,7.2968 -35.885788,5.2331 -61.880591,-16.2582 -26.297426,-21.7415 -40.405915,-26.3176 -57.132392,-18.531 C 4.7721714,1048.6668 0,1047.4209 0,1039.1167 c 0,-12.5604 10.504076,-27.3487 23.881598,-33.6221 6.315961,-2.9619 9.28074,-3.4936 19.451733,-3.4885 15.190147,0.01 23.019194,2.6321 47.999997,16.0906 33.012322,17.7856 41.701642,20.57 64.192962,20.57 35.24379,0 65.70153,-12.3893 98.4737,-40.05613 16.25742,-13.72481 36.33992,-38.44252 44.91129,-55.27719 3.43672,-6.74993 2.04856,-5.28501 -7.58081,8 -13.02149,17.9649 -26.19518,32.77021 -36.34663,40.84832 -11.94539,9.5056 -37.65581,22.4183 -37.64814,18.9082 0.001,-0.5994 2.65858,-2.7679 5.90504,-4.8189 6.259,-3.9541 25.21606,-20.92525 24.3459,-21.79541 -0.28296,-0.28296 -3.17727,0.9738 -6.4318,2.79279 -14.59363,8.15654 -32.41514,9.19332 -49.76629,2.89519 -11.73295,-4.25884 -29.33231,-17.99782 -26.58001,-20.74975 0.41096,-0.41091 9.24716,-0.81137 19.63599,-0.88991 27.60277,-0.20867 37.93762,-4.08656 52.56553,-19.72384 9.1854,-9.81922 16.08369,-23.0614 25.07428,-48.13336 7.67626,-21.40673 18.01076,-41.7778 28.74772,-56.66667 4.49511,-6.23333 18.35135,-24.10968 30.79164,-39.72521 28.5417,-35.82663 37.55459,-49.301 49.68179,-74.2748 10.59649,-21.82156 15.68518,-35.78533 25.99538,-71.33333 3.72213,-12.83334 7.99662,-26.70672 9.49887,-30.82974 l 2.73135,-7.4964 -5.91535,-11.83693 -5.91535,-11.83693 3.14979,-9.25972 c 1.73239,-5.09285 3.1498,-10.54892 3.1498,-12.1246 0,-5.30374 -5.24991,-18.18124 -10.22923,-25.09128 -9.25179,-12.83916 -11.10411,-15.89499 -11.10411,-18.31885 0,-1.33228 6.214,-12.49855 13.80888,-24.81394 13.04831,-21.15835 13.65416,-22.45627 10.99999,-23.56542 -6.12903,-2.56125 -56.49901,-28.04951 -61.91402,-31.32978 -20.56255,-12.45627 -31.5134,-20.68596 -43.62213,-32.78256 -28.95179,-28.92278 -48.84458,-67.68002 -58.6948,-114.35541 -4.26501,-20.20986 -5.95156,-63.21816 -3.31751,-84.59954 2.97649,-24.16112 8.94332,-47.91937 17.35236,-69.09226 C 278.61792,97.605754 336.29362,23.765279 371.3071,5.3471193 c 10.67538,-5.61557232 16.50716,-5.42925967 21.88809,0.699276 6.41049,7.3011527 6.30857,7.8666117 -4.40245,24.4253297 -52.63013,81.363625 -64.33439,159.388535 -32.77081,218.462255 14.4888,27.11692 37.2574,48.81581 69.31138,66.055 6.96667,3.7468 14.90474,8.20706 17.64017,9.9117 5.96231,3.71553 6.35438,3.76261 6.37899,0.766 0.0268,-3.26495 11.9346,-27.67904 20.06699,-41.14264 35.79054,-59.25306 94.35162,-101.79817 163.91384,-119.08475 46.01428,-11.4348 107.12621,-10.90686 153.16641,1.32318 46.14287,12.25731 89.19524,37.56371 121.59061,71.47157 19.53465,20.44669 30.68724,36.43494 45.87499,65.76597 10.31184,19.91454 10.84687,20.66011 14.7013,20.48627 4.91572,-0.2217 40.08059,-20.3938 53.90069,-30.91977 35.1373,-26.76206 54.6148,-74.03729 51.5594,-125.14354 -2.5647,-42.8985 -15.9152,-82.875928 -42.219,-126.422968 -16.2156,-26.845552 -18.8912,-34.8867581 -13.2935,-39.9525984 8.1645,-7.3887782 33.9608,8.2012514 66.1083,39.9525984 24.0064,23.710703 42.3859,48.866359 57.612,78.852598 60.5427,119.23271 33.6161,259.87746 -61.761,322.59371 -20.0563,13.18829 -37.2876,20.40481 -73.5969,30.82268 l -8.35666,2.3977 7.79356,13.37813 c 4.2864,7.35798 11.497,19.27047 16.0233,26.4722 4.5264,7.20173 8.2298,14.27566 8.2298,15.71984 0,1.44417 -4.5,9.57459 -10,18.0676 -6.7889,10.48333 -10,16.72585 -10,19.44056 0,2.19931 2.1633,7.86706 4.8073,12.595 l 4.8073,8.59627 -4.2067,5.53187 c -6.2564,8.22727 -9.7374,16.28682 -8.2713,19.15064 4.2206,8.2448 6.1433,15.2016 8.1841,29.6115 0.7709,5.44331 1.9354,10.54331 2.5877,11.33333 1.4967,1.81276 9.823,39.56354 12.8151,58.10307 1.322,8.19136 3.8103,17.43893 5.9974,22.28851 6.7307,14.92494 24.208,38.62165 49.9399,67.7115 35.8419,40.51924 47.9671,59.78346 63.3613,100.66667 7.5734,20.11301 12.3074,29.22031 20.7924,40 9.3296,11.85272 20.5329,19.29255 34.2411,22.73853 6.1924,1.55665 26.5092,1.0875 38.7278,-0.89429 l 5.1167,-0.82991 -2.0304,3.92637 c -1.1167,2.1595 -4.4422,6.10529 -7.39,8.76842 -15.4833,13.98825 -39.7657,17.819 -62.6046,9.87641 -15.9124,-5.53378 -11.3621,0.72295 11.4742,15.77719 5.3255,3.5107 9.4544,6.6114 9.1753,6.8904 -0.8225,0.8226 -15.6887,-5.0008 -22.1913,-8.6927 -14.0026,-7.9501 -32.5418,-24.93815 -46.2547,-42.38482 -13.184,-16.77362 -12.9683,-16.55275 -8.9603,-9.1756 18.4547,33.96781 50.6187,63.47602 83.3073,76.42862 16.2576,6.4419 29.2531,8.8409 47.9077,8.844 24.0239,0 34.5438,-2.7847 65.3334,-17.3189 24.1372,-11.3939 32.078,-13.7794 49.4602,-14.8581 32.5401,-2.0194 51.0203,12.3678 45.2617,35.2371 -2.4766,9.8355 -2.9818,10.0366 -13.131,5.2285 -7.748,-3.6706 -10.3302,-4.2228 -19.5909,-4.189 -12.661,0.046 -19.4928,3.0225 -32.7373,14.2622 -26.7531,22.7037 -33.6044,26.3656 -49.3296,26.3656 -5.3327,0 -13.4169,-1.163 -18.95,-2.7262 -22.9562,-6.4855 -42.8239,-4.5383 -53.2882,5.2227 -4.5686,4.2615 -5.4625,5.9957 -5.9747,11.5907 -0.6466,7.0639 1.8787,16.692 4.6131,17.5885 1.0121,0.3319 1.6696,-0.6753 1.6741,-2.5646 0.024,-10.169 7.1332,-20.9688 16.6478,-25.2911 7.9185,-3.5973 23.2137,-3.3001 32.7841,0.6371 10.2656,4.2231 16.3074,9.1623 22.4384,18.3436 9.5714,14.3333 12.6521,31.0707 7.6257,41.4296 -2.8501,5.8737 -7.9239,8.5186 -18.8368,9.8196 -4.4,0.5245 -12.959,2.3779 -19.0201,4.1185 -13.3958,3.8472 -13.8283,3.8547 -22.9269,0.3965 -9.5231,-3.6195 -22.7015,-4.6395 -34.1606,-2.644 -28.8735,5.0281 -49.899,31.9419 -40.8805,52.3295 4.3638,9.8651 12.1103,14.3838 29.3612,17.1271 12.6456,2.0109 20.5358,7.2213 26.1814,17.2892 3.7908,6.7602 4.1122,8.3232 4.1122,20 0,11.4921 -0.3968,13.5043 -4.279,21.7003 -10.5201,22.2093 -33.0406,33.6711 -69.2993,35.2699 -12.8474,0.5665 -18.3589,0.2185 -26.352,-1.6638 -5.5589,-1.3091 -10.5021,-1.9851 -10.9851,-1.5022 -1.3608,1.3608 11.2869,19.1252 20.8477,29.2818 16.1368,17.1422 39.8512,32.6234 58.4146,38.1341 4.1059,1.2189 7.6934,2.9008 7.9724,3.7377 0.8877,2.6632 -10.8548,3.4078 -41.4405,2.6279 -31.1232,-0.7936 -38.1718,-1.822 -56.7052,-8.2737 -12.5887,-4.3822 -12.9966,-4.2216 -18.8806,7.4345 -4.6089,9.1302 -17.9576,28.9055 -35.9471,53.2535 -15.4115,20.8587 -27.667,43.5927 -32.7071,60.6719 -4.1751,14.1477 -5.7367,35.7585 -3.4604,47.8872 0.8146,4.3408 1.1881,8.1855 0.8299,8.5437 -1.158,1.158 -8.2653,-16.0238 -13.1416,-31.7695 -4.57981,-14.7883 -9.16067,-35.15 -10.87377,-48.3333 -0.45264,-3.4834 -1.44058,-6.3334 -2.19543,-6.3334 -0.75484,0 -5.92405,4.1941 -11.48713,9.3201 -5.56308,5.126 -10.38615,9.0486 -10.71794,8.7168 -0.33179,-0.3318 2.02202,-6.1758 5.23068,-12.9867 4.31691,-9.1633 8.14525,-14.8471 14.72237,-21.8576 9.88834,-10.54 15.41972,-20.3785 19.81242,-35.2396 1.6181,-5.4741 5.3131,-13.953 8.2113,-18.842 6.9733,-11.7634 9.8597,-19.6873 11.5757,-31.7776 2.0618,-14.5269 3.4377,-48 1.973,-48 -0.6731,0 -3.2192,5.55 -5.6578,12.3333 -5.5468,15.4288 -21.9434,52.6467 -32.34605,73.4208 -22.30272,44.5383 -34.44991,74.0442 -42.34732,102.8627 -5.58672,20.3867 -7.25267,24.2395 -8.58326,19.8507 -1.75497,-5.7885 -3.51679,-26.2112 -3.51679,-40.7659 v -15.7016 h -3.54178 c -2.67466,0 -6.18556,2.693 -14.34043,11 -18.56998,18.9162 -36.54547,45.4397 -44.40973,65.5281 l -3.70806,9.4719 -0.39638,-8.3112 c -0.88564,-18.5698 10.78679,-43.9552 35.72193,-77.6888 5.69168,-7.7 11.33725,-15.95 12.54571,-18.3334 4.50681,-8.8883 -2.13176,-4.5262 -19.27711,12.6667 -25.45014,25.5207 -34.50268,40.7309 -44.65049,75.0223 -7.68084,25.955 -17.48644,43.6966 -35.36317,63.9837 -16.30085,18.4987 -41.8194,37.536 -64.26067,47.9396 -11.88788,5.5111 -36.69346,14.1252 -37.71987,13.0988 -0.34754,-0.3475 3.7253,-3.5224 9.05075,-7.0552 17.94696,-11.9057 34.63113,-30.6033 44.01133,-49.3225 4.22958,-8.4406 10.56305,-25.9915 9.99468,-27.6966 -0.23719,-0.7116 -3.65924,3.97 -7.60454,10.4035 -14.51281,23.6655 -33.13205,42.5781 -57.38549,58.2897 -13.90314,9.0065 -20.55024,12.3485 -39.2279,19.7226 -9.01473,3.5591 -19.93413,9.2935 -28.66667,15.0546 -20.67452,13.6396 -33.20034,19.1814 -35.38067,15.6535 z m 70.30792,-62.094 c 24.89873,-37.1093 42.5891,-83.9595 49.08724,-130 2.3446,-16.612 2.04901,-53.6668 -0.58501,-73.3333 -4.74695,-35.4426 -12.57892,-59.7122 -39.69439,-123.0043 -17.57098,-41.0136 -23.9173,-57.2292 -30.91659,-78.9957 -11.73683,-36.4994 -16.86579,-63.9439 -17.88225,-95.6858 -0.88549,-27.652 0.80305,-45.4106 6.36871,-66.9809 2.0814,-8.0667 4.15715,-16.1667 4.61278,-18 0.76724,-3.0872 0.52951,-2.9964 -3.21962,1.2297 -2.22642,2.5097 -6.18892,8.6372 -8.80556,13.6167 -6.5168,12.4015 -7.9216,12.9121 -6.98084,2.5373 0.41687,-4.5973 0.26137,-7.8394 -0.34556,-7.2046 -0.60693,0.6348 -3.53592,8.6542 -6.50886,17.8209 -29.82816,91.9711 -32.5925,143.0489 -10.71453,197.9763 7.86743,19.7522 17.95341,37.3432 42.6118,74.3194 54.7276,82.0661 68.60715,137.7489 51.27407,205.7043 -6.88714,27.0015 -18.14106,53.1542 -36.83348,85.5964 -4.30866,7.4781 -7.83392,14.0211 -7.83392,14.54 0,2.5224 6.66588,-5.6792 16.36601,-20.1364 z m -45.16468,-138.1145 c -4.49579,-12.4633 -8.21411,-20.4944 -29.57833,-63.8855 -27.21731,-55.2788 -38.14113,-83.5089 -44.37102,-114.6667 -2.46201,-12.3133 -3.08418,-19.929 -3.15891,-38.6666 -0.0512,-12.8334 0.37077,-29.0334 0.93769,-36 1.26434,-15.5372 -0.0425,-13.9775 -5.60875,6.6937 -10.78059,40.0356 -7.95904,78.7852 8.77267,120.4793 7.18558,17.9059 12.62494,28.0528 30.4629,56.827 18.02737,29.0797 27.20179,45.1006 36.85833,64.3642 4.38873,8.755 8.26008,15.6376 8.60298,15.2947 0.34291,-0.3429 -0.97,-5.041 -2.91756,-10.4401 z m -31.16966,6.1978 c -4.53014,-11.9152 -17.29666,-32.9672 -43.30901,-71.4166 -25.29814,-37.3938 -34.73478,-53.0073 -46.09055,-76.2598 -15.6662,-32.0787 -22.43272,-56.3108 -23.56959,-84.4069 -0.76365,-18.8726 1.18657,-34.2869 6.30199,-49.81 1.53635,-4.6621 2.51073,-8.7592 2.16531,-9.1046 -0.34543,-0.3455 -2.12827,1.969 -3.96187,5.1433 -17.11957,29.6365 -14.09923,99.4492 5.925,136.9515 2.89174,5.4158 5.01556,10.0891 4.71961,10.385 -0.48492,0.4849 -6.07304,-7.9276 -21.62415,-32.5535 -8.2071,-12.9964 -11.95525,-9.6331 -5.26939,4.7283 7.33017,15.7454 20.65238,33.7846 58.7808,79.5933 30.98141,37.2221 48.98826,60.9999 58.72933,77.5514 7.35876,12.5036 9.49766,15.2353 7.20252,9.1986 z m 212.20796,-43.3046 c 17.16367,-40.0725 24.79166,-70.4099 26.01192,-103.4525 1.37977,-37.3623 -3.89618,-66.9371 -19.7195,-110.5393 -2.9034,-8.0005 -5.06588,-15.1855 -4.8055,-15.9666 0.98839,-2.9652 30.43466,55.6457 36.93317,73.513 5.9745,16.4266 4.81981,7.0525 -2.13731,-17.3514 -6.51271,-22.845 -13.97456,-40.1158 -39.88471,-92.3152 -16.51059,-33.2628 -25.68106,-53.5601 -31.92766,-70.6667 -4.82008,-13.2 -9.61332,-25.8 -10.65164,-28 l -1.88786,-4 -0.12582,6.6667 c -0.17812,9.4378 -1.54164,6.2316 -7.90508,-18.5883 -6.48512,-25.2944 -8.8605,-29.2965 -7.56465,-12.7451 2.51668,32.1447 10.43605,69.9009 33.8397,161.3334 29.81065,116.4631 32.82047,158.3753 18.19248,253.3333 l -0.71889,4.6667 2.86794,-5.2214 c 1.57736,-2.8717 5.8449,-12.1717 9.48341,-20.6666 z m 205.74444,4.0806 c 6.0936,-11.0362 16.061,-26.3046 31.4605,-48.1926 10.6045,-15.0727 23.3094,-40.8268 26.5797,-53.88 2.6686,-10.6512 3.6754,-28.6876 1.3831,-24.7766 -0.648,1.1056 -3.6436,8.574 -6.657,16.5965 -7.1755,19.1031 -14.2556,32.2059 -32.1392,59.478 -15.7536,24.0239 -23.7848,39.6239 -27.1694,52.7745 -3.879,15.0717 -2.6815,14.7057 6.5423,-1.9998 z m -225.39584,-44.526 c -2.79998,-26.5903 -10.97075,-61.8474 -24.14921,-104.2048 -39.42656,-126.7222 -46.59943,-164.0866 -49.22827,-256.4362 -0.48495,-17.0359 -1.32695,-30.6992 -1.8711,-30.3629 -0.54416,0.3363 -1.50426,3.1748 -2.13356,6.3077 -1.10742,5.5132 -1.15776,5.3857 -1.56688,-3.9705 -0.23249,-5.3166 -0.93601,-9.6666 -1.56337,-9.6666 -1.9345,0 -3.16389,32.6858 -2.23167,59.3333 1.99431,57.0072 9.69067,120.1574 20.29091,166.4911 1.82341,7.9702 3.07918,15.1702 2.7906,16 -1.41014,4.0554 -18.35171,-55.6523 -22.8387,-80.4911 -4.81052,-26.6297 -8.52542,-68.9019 -8.90521,-101.3333 -0.0902,-7.7 -0.59713,-15.8 -1.12658,-18 l -0.96262,-4 -1.64095,4 c -8.70424,21.2176 -13.4043,59.1 -10.83544,87.3333 4.7184,51.858 22.90096,105.1833 67.0583,196.6667 21.49082,44.5238 27.86203,58.1373 33.12226,70.7729 2.26532,5.4416 4.69257,9.8938 5.39388,9.8938 0.76886,0 0.92672,-3.3086 0.39761,-8.3334 z m 93.09228,-38 c 16.94536,-22.9055 27.7262,-38.3489 32.19011,-46.1118 7.7361,-13.4534 14.88736,-34.2215 11.78377,-34.2215 -0.71997,0 -5.36456,8.1222 -10.32131,18.0493 -4.95675,9.9271 -9.24705,17.8145 -9.534,17.5276 -0.28696,-0.287 1.56522,-6.7592 4.11594,-14.3827 6.93368,-20.7231 9.20101,-35.9166 8.33612,-55.8609 -0.90999,-20.9844 -4.10417,-33.3477 -13.72824,-53.1363 -8.2582,-16.9801 -11.16111,-19.6524 -3.79888,-3.497 17.37304,38.1226 16.54135,73.7457 -2.86946,122.905 -3.24416,8.2161 -11.2886,26.1474 -17.87653,39.8473 -6.58792,13.6999 -11.97804,25.1277 -11.97804,25.395 0,1.6313 2.40012,-1.2659 13.68052,-16.514 z m -620.05511,3 c 4.85003,-9.4062 12.43561,-19.6368 25.70389,-34.6666 7.12124,-8.0667 14.68538,-17.3342 16.80922,-20.5944 4.08665,-6.2733 5.17098,-13.4056 2.03807,-13.4056 -1.68105,0 -25.76106,25.7607 -35.56138,38.0435 -7.7631,9.7295 -16.0229,29.5463 -15.90611,38.1617 0.0418,3.0838 0.0716,3.0903 2.10438,0.4614 1.13408,-1.4666 3.29945,-5.0666 4.81193,-8 z m 440.26126,-98.7857 c -25.41419,-81.1486 -34.2233,-131.6471 -31.10157,-178.2907 1.19773,-17.896 2.08066,-23.2217 7.11613,-42.9236 4.21333,-16.4851 4.21432,-16.9378 0.026,-12 -2.62507,3.0949 -3.24826,3.3966 -2.754,1.3334 6.39452,-26.6929 7.67144,-32.9331 6.89737,-33.7072 -1.02154,-1.0215 -3.5604,1.936 -11.61334,13.5283 -11.63497,16.7488 -21.25499,40.4608 -26.03758,64.1789 -3.4266,16.9934 -3.4041,68.7506 0.0383,88 5.49984,30.7546 17.30823,69.8129 29.74964,98.402 4.18564,9.6182 8.56087,17.3115 6.59586,11.598 -1.6022,-4.6586 -10.23523,-41.9655 -13.26726,-57.3334 -5.5308,-28.0328 -9.7394,-60.2416 -7.54534,-57.7451 0.52131,0.5931 2.61578,8.2785 4.65438,17.0785 4.17044,18.0025 12.01826,41.71 22.95121,69.3333 8.67469,21.9176 19.3792,43.5681 20.04761,40.5476 0.25791,-1.1655 -2.33293,-11.0655 -5.75741,-22 z m -361.46614,-29.8809 c 0.005,-4.7667 -0.98777,-15.7474 -2.20583,-24.4017 -2.76557,-19.649 -2.81036,-32.7511 -0.14692,-42.9767 2.14079,-8.2191 3.80464,-11.5167 14.61451,-28.9653 6.18263,-9.9796 7.16345,-14.0468 2.45485,-10.1797 -6.3065,5.1795 -19.8402,22.9074 -24.15917,31.6462 -4.55003,9.2064 -4.88007,10.6943 -4.74359,21.386 0.0968,7.5856 1.54425,17.6202 4.25865,29.5243 2.26158,9.9183 4.52866,23.4183 5.03797,30 l 0.92601,11.9669 1.97734,-4.6667 c 1.08753,-2.5667 1.98132,-8.5667 1.98618,-13.3333 z m 670.80675,7.6965 c 0.5016,-4.5998 2.4633,-14.3632 4.3595,-21.6965 5.6813,-21.9721 7.0237,-28.9677 7.0363,-36.6667 0.013,-8.2352 -2.3565,-18.3552 -5.9325,-25.3333 -2.9218,-5.7013 -10.2974,-16.171 -10.9397,-15.5287 -0.2568,0.2568 1.3617,4.764 3.5966,10.016 7.0231,16.5038 7.3877,30.0976 1.5251,56.846 -1.4466,6.6 -3.0424,15.7397 -3.5463,20.3105 -0.9797,8.887 0.2492,22.1093 1.9567,21.0539 0.5679,-0.3509 1.4428,-4.4015 1.9443,-9.0012 z m 93.1193,-5.3124 -6.113,-13.6159 -1.0956,-20.7175 c -2.7213,-51.4591 -5.0256,-66.6213 -12.3361,-81.1689 -1.7178,-3.4184 -3.5505,-7.5939 -4.0727,-9.2791 l -0.9495,-3.0639 5.1102,2.2125 c 8.99,3.8924 30.9096,11.2501 33.3846,11.2063 2.1853,-0.039 2.1616,-0.218 -0.2745,-2.0721 -1.4667,-1.1163 -7.4036,-4.5472 -13.1933,-7.6243 -7.3339,-3.8977 -13.9074,-8.9309 -21.6733,-16.5946 -6.1307,-6.05 -11.7626,-11 -12.5153,-11 -4.3488,0 -2.3644,16.7519 4.7166,39.8152 5.8683,19.1136 8.2851,33.5907 9.3793,56.1848 1.4268,29.4586 5.9698,44.411 18.5339,61 3.4713,4.5834 6.514,8.3334 6.7616,8.3334 0.2476,0 -2.3007,-6.1272 -5.6629,-13.6159 z m -813.82097,4.9463 c 5.18341,-7.2178 11.17594,-20.2942 13.31475,-29.0545 0.85815,-3.5148 2.12429,-15.2148 2.81362,-26 1.49876,-23.4489 3.40449,-33.9748 10.71946,-59.2063 6.25202,-21.5651 7.80216,-37.2808 3.75816,-38.1012 -1.23291,-0.2501 -5.92663,2.8841 -10.66667,7.1226 -10.5784,9.4592 -21.7868,17.1356 -31.53819,21.6 -4.13725,1.8941 -6.86578,3.6626 -6.06339,3.9301 2.87415,0.958 19.96466,-3.4798 28.47001,-7.3928 11.15262,-5.1308 11.37027,-4.1508 3.33665,15.0242 -3.35425,8.0061 -6.68391,17.1682 -7.39925,20.3601 -0.71533,3.192 -1.86212,21.0121 -2.54842,39.6004 -1.28815,34.8892 -1.75974,37.8221 -8.54156,53.1203 -3.0086,6.7867 -0.89966,6.2999 4.34483,-1.0029 z m 469.76611,-42.9971 c -0.64329,-6.3548 -8.44432,-61.9251 -12.89782,-91.877 -1.87084,-12.5823 -5.21087,-38.3823 -7.42228,-57.3333 -5.79244,-49.6392 -6.03413,-50.3723 -9.877,-29.9566 -8.7227,46.3402 1.51967,119.0457 24.48878,173.8336 2.38266,5.6833 4.75564,10.3333 5.27329,10.3333 0.51765,0 0.71341,-2.25 0.43503,-5 z m -367.99909,-20.6885 c -11.46407,-12.203 -11.73097,-34.0579 -0.68526,-56.1108 1.78123,-3.5562 2.9722,-6.7323 2.6466,-7.0579 -1.41437,-1.4143 -11.75488,12.4637 -14.40107,19.3277 -5.92585,15.3713 -3.40319,34.1656 5.68403,42.3474 6.59329,5.9363 12.06615,7.1463 6.7557,1.4936 z m 581.11115,-2.2247 c 13.62606,-14.324 11.82129,-38.383 -4.24877,-56.6396 -3.01599,-3.4263 -5.71458,-5.9988 -5.99687,-5.7165 -0.28229,0.2823 1.63553,5.164 4.26182,10.8483 10.63742,23.0233 10.56361,38.7265 -0.25265,53.7543 -3.70043,5.1413 0.72514,3.5471 6.23647,-2.2465 z M 234.00551,1102.6653 c 17.58247,-4.4968 28.01293,-13.2491 36.05916,-30.2574 5.04193,-10.6578 3.5996,-12.8642 -2.55848,-3.9138 -8.75007,12.7177 -20.70422,22.7569 -35.90281,30.1517 -14.67299,7.139 -14.02627,8.2212 2.40213,4.0195 z m 963.92779,1.4517 c -0.6967,-0.669 -5.0237,-2.7299 -9.6156,-4.5796 -4.5919,-1.8498 -11.8677,-5.5007 -16.1684,-8.1133 -9.5107,-5.7774 -23.8939,-20.7324 -27.3519,-28.4391 -2.6567,-5.921 -5.602,-7.8199 -4.1127,-2.6516 2.1842,7.5803 10.1697,22.5335 14.728,27.579 6.6625,7.3746 14.0726,11.5528 26.0537,14.6903 10.6668,2.7933 18.5541,3.5187 16.4669,1.5143 z m -120.6,-6.5769 c 2.4875,-1.0231 -2.4181,-1.4091 -19.3334,-1.521 -12.4666,-0.082 -30.9682,-0.6558 -41.1146,-1.2742 l -18.44801,-1.1242 -30.50673,-15.4263 c -16.7787,-8.4844 -30.03895,-15.7154 -29.46723,-16.0687 0.87025,-0.5379 25.93346,-3.459 29.67789,-3.459 2.28413,0 1.17082,-3.8236 -1.81589,-6.2365 -3.92931,-3.1745 -12.16105,-13.7056 -11.34836,-14.5183 0.34751,-0.3475 5.39656,-0.9993 11.2201,-1.4483 9.61133,-0.7412 12.24354,-0.3473 28.5289,4.2696 15.06153,4.2699 20.72233,5.2122 35.27393,5.8717 l 17.3334,0.7857 -6,1.956 c -3.9793,1.2972 -11.7063,1.9612 -22.9436,1.9714 l -16.9435,0.015 4.9435,2.5466 c 12.237,6.3039 33.4473,3.532 50.2769,-6.5703 17.6615,-10.6017 27.2643,-24.0349 28.3857,-39.7084 0.46,-6.4284 0.2247,-9.05716 -0.7564,-8.45081 -0.7833,0.48408 -1.8346,2.82321 -2.3363,5.19821 -2.6536,12.5609 -14.3005,25.7335 -26.399,29.8572 -15.5446,5.2982 -33.3663,2.1978 -61.56917,-10.7112 -7.33802,-3.3587 -17.45858,-7.1227 -22.49014,-8.3643 -8.66408,-2.1381 -10.05488,-2.1292 -26.27684,0.1677 -20.12112,2.8489 -30.37419,2.1912 -39.72732,-2.5484 -11.36368,-5.7584 -16.71212,-13.21143 -38.81089,-54.08299 -11.64879,-21.54437 -22.61088,-39.83703 -34.95693,-58.33333 -5.01728,-7.51667 -8.65891,-13.6591 -8.09251,-13.64985 3.02726,0.0495 26.66615,30.51131 38.29919,49.3536 15.05222,24.38039 21.26543,32.73455 33.27887,44.74609 14.29196,14.2897 22.99135,19.16586 36.06546,20.21528 7.46946,0.5996 9.60049,0.2168 15.86991,-2.85049 10.59908,-5.18565 13.98319,-13.66304 9.62142,-24.10223 -1.88654,-4.51513 -8.78692,-9.37399 -11.85854,-8.35012 -0.865,0.28833 -0.0743,1.29975 1.75705,2.2476 10.24751,5.30368 12.42535,13.21499 5.29054,19.21854 -4.92096,4.14071 -10.49913,5.2971 -22.32793,4.62871 -18.91492,-1.06879 -33.94016,-12.94377 -45.64868,-36.07779 -3.74629,-7.40202 -10.19227,-18.01547 -14.3244,-23.58545 -10.91787,-14.71692 -49.3523,-52.70784 -65.16919,-64.41717 -14.61063,-10.81633 -28.2043,-19.10742 -29.38757,-17.92415 -0.40634,0.40635 4.22839,6.91407 10.2994,14.4616 15.30629,19.02891 17.28799,22.38623 37.65702,63.79706 18.47074,37.55157 27.47039,53.15093 40.71228,70.56789 10.7662,14.1607 11.01215,15.4127 0.9274,4.7209 -19.6865,-20.87155 -34.41466,-41.7663 -49.54331,-70.28681 -5.55676,-10.4756 -12.81294,-23.72364 -16.12483,-29.44009 -5.91171,-10.20381 -6.67326,-13.80774 -2.14055,-10.12979 3.85361,3.1269 0.95093,-1.01748 -8.97199,-12.81 -10.51642,-12.49784 -21.74347,-22 -25.99357,-22 -0.50443,0 2.60613,4.0135 6.91235,8.9189 4.30622,4.90539 6.91993,8.35539 5.80824,7.66667 -1.11168,-0.68873 -5.41387,-3.55544 -9.56041,-6.37047 -11.45888,-7.77925 -13.68762,-6.04543 -4.9045,3.81542 3.93405,4.41678 9.01749,10.41678 11.29653,13.33333 7.0891,9.07213 41.81551,75.78805 40.25883,77.34473 -0.30085,0.30085 -5.6145,-7.29732 -11.8081,-16.88484 -6.19361,-9.58751 -18.56982,-28.62002 -27.50271,-42.29446 -8.93288,-13.67444 -17.98322,-27.55838 -20.11186,-30.85321 -3.63316,-5.62361 -11.58313,-11.85058 -13.14087,-10.29284 -0.38613,0.38613 1.14632,3.25368 3.40546,6.37232 2.25913,3.11865 3.80975,5.96802 3.44583,6.33195 -0.36392,0.36392 -4.41812,-2.23738 -9.00931,-5.78068 -12.58,-9.70871 -12.68107,-9.75454 -7.29302,-3.30682 13.42749,16.06825 31.67106,39.09845 49.64192,62.66667 58.95953,77.32352 81.2908,100.15692 121.8613,124.60112 41.71622,25.1345 76.84056,38.5519 115.32744,44.0546 15.0689,2.1545 55.1717,1.8582 60.7814,-0.449 z m -664.66666,-2.7851 c 61.20069,-12.2119 107.6098,-38.3962 155.45216,-87.707 19.04323,-19.62768 34.75237,-38.44154 62.66333,-75.04796 12.02146,-15.76666 27.27578,-35.26666 33.89847,-43.33333 15.29067,-18.62457 19.8254,-24.60507 19.16079,-25.26969 -0.29174,-0.29173 -4.12541,2.4391 -8.51927,6.06853 -8.45608,6.98492 -10.77877,6.50803 -6.70178,-1.376 2.38889,-4.61961 2.06326,-4.85626 -3.04641,-2.21394 -2.33005,1.20491 -5.90897,6.04044 -10.00897,13.52325 -3.51012,6.40623 -10.48354,17.41222 -15.49649,24.45777 -5.01296,7.04554 -12.86797,19.11008 -17.45558,26.81008 -10.38512,17.43074 -24.08712,37.63691 -24.94215,36.78189 -0.35325,-0.35325 2.82098,-7.12368 7.05385,-15.04541 4.23286,-7.92173 12.27557,-23.10315 17.87269,-33.73648 10.0406,-19.07497 17.8115,-31.5721 26.11623,-42 6.1488,-7.72079 9.11998,-12.66667 7.60934,-12.66667 -0.72443,0 -5.37076,3.32268 -10.32517,7.38373 -4.95442,4.06106 -9.34712,7.04465 -9.76156,6.63021 -0.41443,-0.41444 3.09555,-4.63712 7.79998,-9.38373 9.25351,-9.33651 9.22033,-10.81333 -0.10843,-4.82524 -8.94162,5.7396 -24.08019,22.2568 -31.3409,34.19503 l -2.43276,4 4.2424,-3.90279 c 2.33332,-2.14654 4.49474,-3.64654 4.80315,-3.33334 0.30841,0.31321 -2.44172,5.36947 -6.1114,11.23613 -3.66968,5.86667 -10.74826,19.15728 -15.73019,29.53468 -4.98192,10.37741 -11.71854,22.97741 -14.97026,28.00001 -7.12345,11.00286 -24.39378,32.33632 -36.53623,45.13197 -9.90067,10.4333 -9.50372,9.57 5.02488,-10.92842 14.06019,-19.83752 22.86047,-35.48756 41.95706,-74.61464 10.29353,-21.09045 20.17059,-39.17843 26.54093,-48.60468 5.5804,-8.25737 11.00185,-16.6681 12.04767,-18.6905 4.47909,-8.66159 -3.25104,-4.43358 -20.08872,10.9876 -5.13333,4.70148 -10.49851,9.44121 -11.92261,10.53273 -2.95234,2.26286 -2.52469,1.18584 2.28669,-5.75885 1.42642,-2.05889 2.37804,-3.95464 2.11471,-4.21277 -0.67094,-0.6577 -18.48576,13.68158 -30.73377,24.73784 -16.59935,14.98421 -26.62664,28.61317 -37.96356,51.59957 -14.64686,29.69752 -22.42327,39.04868 -38.83121,46.69464 -15.64987,7.2927 -38.7803,2.22444 -35.59859,-7.80024 0.80711,-2.54297 3.47319,-4.14411 11.83918,-7.11013 1.3883,-0.4922 2.20332,-1.21576 1.81117,-1.60792 -0.39216,-0.39215 -4.35996,0.82197 -8.81733,2.69806 -9.53809,4.01452 -9.51801,4.01171 -9.51801,1.33237 0,-1.14328 -0.6,-1.70787 -1.33333,-1.25465 -2.56049,1.58248 -1.30308,8.30833 2.54685,13.62301 8.54547,11.79668 25.79919,14.62338 41.57352,6.81107 11.83144,-5.85958 26.29108,-20.69264 38.76628,-39.76741 5.51553,-8.43333 13.55524,-20.73334 17.86602,-27.33334 10.36483,-15.86903 31.33555,-43.68955 32.24617,-42.77893 0.39631,0.39631 -6.78084,13.18371 -15.94923,28.41642 -9.16839,15.23272 -21.635,36.69585 -27.70356,47.69585 -19.13285,34.68056 -27.2623,45.18682 -39.34605,50.84972 -7.95919,3.73 -22.81935,4.1961 -36.66667,1.1503 -17.99008,-3.9571 -26.83761,-2.3505 -52.08431,9.4579 -19.84572,9.2823 -34.71808,13.141 -46.75786,12.1317 -19.09864,-1.6012 -30.61112,-10.6885 -36.49469,-28.8068 l -3.28504,-10.11615 0.35734,9.33335 c 0.25294,6.6067 1.27555,11.1561 3.50043,15.5728 10.00604,19.8634 34.87932,35.8604 56.09747,36.0784 9.04986,0.093 20,-2.2412 20,-4.2633 0,-1.8002 -7.49383,-3.0443 -12.16183,-2.019 -4.66052,1.0236 -23.84114,-0.4379 -23.83282,-1.816 0.003,-0.4874 7.65295,-2.1937 17,-3.7917 9.34706,-1.598 23.24154,-4.2297 30.87664,-5.8483 17.65985,-3.7438 20.1026,-3.0838 22.04802,5.9569 1.78168,8.2799 5.43085,11.0886 18.16118,13.9787 9.65054,2.1908 14.09174,5.4848 7.3951,5.4848 -2.39526,0 -3.18701,0.5618 -2.67437,1.8978 1.13788,2.9652 -3.31708,4.5544 -21.06517,7.5143 -18.03163,3.0073 -36.56935,7.41 -39.72442,9.4345 -2.0023,1.2849 6.26883,0.7171 15.14448,-1.0397 2.58921,-0.5124 3.54092,-0.2853 2.93213,0.6997 -2.69933,4.3676 -35.37758,9.1 -71.83433,10.4028 -35.90713,1.2833 -25.90654,3.3244 13.06873,2.6674 27.3627,-0.4613 35.9604,-1.0861 47.99999,-3.4885 z M 757.7047,989.4953 c 0.576,-0.57599 -3.19494,-3.86814 -8.37985,-7.31587 -5.18492,-3.44774 -9.06871,-6.84854 -8.63065,-7.55733 0.43806,-0.7088 3.11199,-1.28872 5.94206,-1.28872 10.96123,0 12.22238,-2.85094 3.03036,-6.85042 -15.55065,-6.76616 -51.82764,-10.17305 -68.18045,-6.40306 -12.81451,2.95427 -29.83555,14.23802 -34.19547,22.66919 -1.85745,3.59192 -1.79683,3.90986 1.03478,5.42733 5.3814,2.88392 106.59378,4.10432 109.37922,1.31888 z M 489.18232,933.00004 c 4.09933,-13.03268 13.79867,-32.94438 17.92903,-36.80636 5.10439,-4.77271 6.63913,-2.70414 5.66602,7.63687 -0.98186,10.43391 -1.34311,10.72368 11.95072,-9.58595 13.29933,-20.31802 28.33749,-37.62339 30.66859,-35.29229 0.27591,0.27591 -1.64185,4.6101 -4.26169,9.63153 -6.47479,12.41021 -8.74708,18.08287 -7.24342,18.08287 0.69339,0 5.78159,-5.32859 11.3071,-11.84131 5.52551,-6.51273 18.98224,-19.75174 29.90385,-29.42003 22.29476,-19.7363 24.72996,-22.56337 28.25078,-32.7968 4.72212,-13.72509 16.08255,-26.4323 29.6955,-33.21592 14.18604,-7.0692 19.61435,-3.98992 24.98608,14.17369 1.47548,4.98912 0.29903,5.47821 -4.53281,1.88444 -8.7087,-6.47727 -17.49386,-5.28632 -26.76407,3.62822 -9.07274,8.72465 -10.45941,18.31786 -4.05962,28.08518 3.59335,5.48415 5.98825,4.49762 5.98825,-2.46674 0,-15.64681 16.52446,-11.39636 42.33146,10.88858 7.04214,6.08105 13.07764,10.7827 13.41223,10.44811 0.33459,-0.33459 -2.32087,-3.83105 -5.90101,-7.7699 -6.80069,-7.48207 -16.50935,-22.83276 -16.50935,-26.10348 0,-1.04498 3.47676,1.4163 7.72612,5.46951 11.21647,10.69869 17.25795,13.43245 28.3056,12.8082 8.96772,-0.50672 9.90323,-0.92312 22.33742,-9.94249 1.6697,-1.21114 3.32214,-1.91576 3.67208,-1.56582 1.0932,1.0932 -12.53004,19.52524 -16.72181,22.62435 -2.19234,1.62086 -3.98608,3.4496 -3.98608,4.06386 0,2.15172 7.84983,-2.97513 18.87561,-12.32798 13.07086,-11.08762 25.3624,-17.45831 34.25043,-17.75194 5.54043,-0.18304 6.25415,0.12551 6.64346,2.87202 0.2399,1.6924 -0.5101,4.52129 -1.66666,6.28642 -2.62753,4.01011 -2.62757,4.63649 -2.8e-4,4.63649 1.15641,0 3.85641,-1.75384 6,-3.89743 2.96769,-2.96769 3.89045,-5.11468 3.86816,-9 -0.10675,-18.60146 -22.40235,-32.70691 -33.32323,-21.08216 -6.01353,6.40111 -7.03382,2.67585 -2.54965,-9.30918 4.22266,-11.28608 9.63519,-12.73082 23.23549,-6.20215 14.83162,7.11974 25.43156,19.12324 29.55176,33.46477 2.37194,8.25624 6.38873,12.66319 31.60403,34.67382 13.12621,11.45798 30.47906,29.60131 34.55713,36.13134 0.87736,1.40488 2.05087,2.55433 2.60781,2.55433 3.36571,0 -2.64686,-14.82904 -10.37292,-25.58315 -9.92287,-13.81193 4.24905,-2.42354 17.41093,13.99121 4.81814,6.0089 12.36236,16.77527 16.76495,23.92527 4.40258,7.15 8.5226,13 9.15559,13 0.63298,0 0.31554,-3.58076 -0.70542,-7.95726 -2.57512,-11.03856 -0.18169,-15.57428 5.1235,-9.7094 2.89991,3.20584 16.1333,30.16293 18.81805,38.33333 1.20485,3.66667 2.68474,7.44507 3.28864,8.39645 1.68864,2.66027 3.59186,-0.37633 7.83239,-12.49666 3.28227,-9.3814 4.06928,-10.56646 7.01733,-10.56646 4.86403,0 6.98638,-7.50135 6.44336,-22.77376 -0.39591,-11.13501 -0.88539,-13.02464 -6.09631,-23.53467 -15.55504,-31.37333 -48.31126,-62.18067 -86.33416,-81.19759 -16.96708,-8.48599 -18.10654,-9.27193 -12.51479,-8.63205 9.13229,1.04503 22.94965,5.91919 36.93842,13.03024 19.67225,10.0002 33.92034,20.07261 61.54736,43.50973 4.58273,3.88771 9.31401,6.87952 10.51396,6.64845 3.56113,-0.68573 5.85377,-9.92278 4.89377,-19.71702 -2.71469,-27.69594 -23.89254,-65.13013 -51.69483,-91.37629 -9.0322,-8.52665 -11.09671,-11.02058 -7.68389,-9.28212 11.2277,5.71929 22.10063,14.56872 42.89511,34.91214 24.64437,24.1098 26.6401,25.18076 33.72378,18.09708 8.00535,-8.00536 10.65538,-18.06321 6.7494,-25.61653 -4.16086,-8.04622 -21.87199,-19.40656 -43.64924,-27.99765 -8.91096,-3.51536 -12.53497,-6.74359 -7.54898,-6.72455 3.66112,0.014 28.16615,5.59252 37.55605,8.5496 5.76896,1.81676 6.47126,1.80873 7.19694,-0.0824 0.44229,-1.15258 -0.51656,-4.81405 -2.13077,-8.13659 -7.68472,-15.81746 -15.7518,-20.80305 -37.45896,-23.15024 -23.75783,-2.56893 -36.49182,-1.20004 -56.66666,6.09163 -25.80869,9.32787 -37.65605,9.55495 -64.35624,1.23353 -6.12445,-1.90876 -11.50874,-3.09709 -11.96509,-2.64074 -2.19127,2.19127 24.9,25.09456 46.94507,39.68796 7.29061,4.82623 11.86598,8.62223 10.69403,8.87241 -3.44291,0.73495 -34.89121,-7.67457 -54.5158,-14.57796 -29.01253,-10.2058 -31.01769,-9.41574 -29.75645,11.72451 0.40742,6.82891 0.56094,12.4162 0.34115,12.4162 -0.21979,0 -2.82001,-3.2058 -5.77828,-7.124 -6.55133,-8.67717 -11.7803,-11.29007 -17.6928,-8.84104 -2.24642,0.9305 -9.24446,6.40526 -15.5512,12.16612 -6.30673,5.76086 -11.67364,10.26744 -11.92647,10.01461 -0.25283,-0.25283 1.6891,-5.11044 4.31539,-10.7947 12.17679,-26.35507 10.40564,-42.03584 -7.36707,-65.22394 -3.69576,-4.82187 -6.71956,-9.45877 -6.71956,-10.30422 0,-1.73924 0.72179,-1.56218 14.93414,3.6636 12.40533,4.56135 14.35792,3.72673 10.98759,-4.69656 -4.28209,-10.702 -15.54614,-16.19321 -33.21694,-16.19321 -17.64397,0 -31.94196,5.63535 -36.03204,14.20151 -4.99842,10.46858 -1.43239,12.23954 11.50019,5.71119 4.45329,-2.24801 8.45765,-3.72655 8.89857,-3.28563 0.8085,0.8085 -0.65713,5.04698 -7.07435,20.4584 -8.05247,19.3386 -9.41183,41.23367 -4.1544,66.91454 1.72648,8.43333 2.92356,15.57792 2.66016,15.87687 -0.71508,0.81161 -10.44056,-20.65918 -13.65025,-30.13544 -1.53849,-4.54221 -3.1864,-10.69221 -3.66204,-13.66666 -0.47563,-2.97446 -1.58301,-5.40811 -2.46084,-5.40811 -0.87783,0 -6.00244,1.49871 -11.38801,3.33046 -5.38558,1.83176 -10.08401,3.03842 -10.44096,2.68148 -0.35694,-0.35694 2.48366,-3.9613 6.31245,-8.00968 5.47484,-5.78883 6.8716,-8.14102 6.54075,-11.01481 -0.40206,-3.49235 -0.78453,-3.67156 -8.63974,-4.04811 -6.62089,-0.31738 -10.25057,0.39925 -18.66667,3.68546 -10.05382,3.92569 -14.46681,6.69663 -32.27544,20.26589 -4.61876,3.51927 -11.79074,7.41549 -16.50369,8.96574 -9.82442,3.23158 -25.68834,5.83261 -31.92253,5.23396 -4.20338,-0.40363 -3.8436,-0.73446 7.58739,-6.9769 18.73106,-10.229 31.1915,-19.06453 41.36823,-29.33364 8.68925,-8.76814 14.06382,-17.12557 12.20721,-18.98218 -0.43092,-0.43092 -5.96419,1.38519 -12.29616,4.03581 -22.08579,9.24529 -35.18829,9.3429 -61.57118,0.4587 -8.96055,-3.01738 -16.63093,-5.14712 -17.0453,-4.73276 -0.41437,0.41437 -0.11705,3.59288 0.6607,7.06335 3.68317,16.43504 -6.34121,31.51802 -29.26538,44.03356 -23.0571,12.58812 -30.176,24.44465 -26.13451,43.52706 2.28356,10.78209 9.73793,29.10376 12.23032,30.06018 0.99897,0.38334 4.92153,-2.09488 8.71679,-5.50715 7.44427,-6.69303 26.57255,-19.73759 27.53358,-18.77656 0.32306,0.32306 -3.45776,4.96425 -8.40182,10.31376 -10.82713,11.71504 -22.30942,28.78445 -26.9732,40.09799 -8.49475,20.6068 -11.6025,44.02115 -8.35935,62.98077 1.80463,10.55002 3.22415,13.18231 4.66341,8.64763 1.3064,-4.11611 2.83754,-2.181 6.07768,7.68115 3.40709,10.37032 6.21173,16.31885 7.69411,16.31885 0.57016,0 2.40491,-4.35 4.07722,-9.66667 z m 176.28743,-11.24782 c 13.64928,-9.75599 31.06956,-14.76795 45.64684,-13.13299 10.84239,1.21606 23.13568,5.28125 30.15822,9.97283 3.26784,2.18316 6.15599,3.75492 6.41812,3.49279 1.19786,-1.19786 -7.05857,-24.76173 -10.68688,-30.50038 -4.86872,-7.70054 -12.07872,-12.91776 -17.85184,-12.91776 -3.5421,0 -4.46381,0.68012 -5.69048,4.19896 -0.80508,2.30943 -1.46377,7.07037 -1.46377,10.57987 0,9.38324 -1.92178,13.62327 -5.6677,12.50468 -5.42307,-1.6194 -7.49409,-5.00378 -8.94453,-14.61684 -2.08278,-13.80406 -2.62405,-15.5544 -4.6659,-15.0886 -4.14281,0.94509 -22.50364,16.7798 -25.65597,22.12617 -3.5339,5.99353 -11.05279,25.0548 -11.06106,28.04112 -0.005,1.96852 0.62718,1.65705 9.46495,-4.65985 z M 463.71826,840.93524 c 2.54118,-4.19294 4.28171,-8.86389 4.28171,-11.49056 0,-2.43417 -2.47585,-9.90501 -5.50189,-16.60187 -8.10729,-17.94204 -10.5015,-25.72958 -10.46882,-34.05151 0.0575,-14.64143 8.15163,-24.53284 31.15222,-38.0694 17.081,-10.05271 21.23718,-13.87005 26.30159,-24.15733 3.42956,-6.96643 4.0645,-9.58485 3.44472,-14.20564 -1.47318,-10.98336 -8.68047,-12.63352 -33.28175,-7.6201 -19.01756,3.87553 -32.60305,9.39789 -38.84479,15.79001 -4.90361,5.02176 -4.99333,5.27459 -2.3699,6.6786 1.714,0.91731 12.6337,1.45926 29.40228,1.45926 26.56744,0 32.38289,0.99083 24.57486,4.18705 -2.05802,0.84245 -9.80943,4.4154 -17.22536,7.93988 -16.09185,7.64779 -27.29638,17.7373 -33.31906,30.00332 -3.39765,6.91976 -3.8641,9.32432 -3.8641,19.91941 0,11.48151 0.26461,12.5817 5.61195,23.33334 6.92495,13.92367 9.19139,20.26337 11.06572,30.9531 1.82574,10.41262 2.58084,12.99724 3.79713,12.99724 0.52898,0 2.88854,-3.17916 5.24349,-7.0648 z m 403.4911,-147.07475 c 10.33482,-2.64342 19.60816,-5.05052 20.60742,-5.34911 3.3182,-0.99154 -0.89673,-4.18798 -7.54953,-5.72528 -6.86207,-1.58565 -12.08601,-0.73319 -34.2673,5.59186 -6.6,1.88201 -13.7208,3.79609 -15.824,4.25351 -4.81755,1.04776 -3.87706,1.99056 4.13575,4.14588 9.54254,2.56679 12.4751,2.30677 32.89766,-2.91686 z m -292.11358,1.34754 c 3.43064,-1.16893 6.23752,-2.58277 6.23752,-3.14187 0,-0.55909 -4.05,-1.39957 -9,-1.86772 -4.95,-0.46816 -15.17127,-2.05432 -22.71394,-3.5248 -14.69117,-2.86412 -26.95272,-3.48943 -26.95272,-1.37451 0,3.7759 25.57844,11.79214 38.09581,11.93915 4.4527,0.0523 10.9027,-0.86131 14.33333,-2.03025 z m 351.55368,-24.22035 c 11.96912,-5.98003 21.35049,-14.41356 21.35049,-19.19334 0,-7.11843 -13.13704,-14.38481 -26.09133,-14.43169 -14.5908,-0.0528 -30.08009,6.59815 -31.04239,13.32931 -0.34247,2.39548 0.71113,4.25057 3.94963,6.95419 5.3703,4.48332 5.18063,4.4905 -11.54919,0.43731 -23.56287,-5.70867 -53.26672,-7.9889 -53.26672,-4.08905 0,0.73025 3.6,1.77257 8,2.31628 9.98577,1.23393 21.78851,4.72107 44,12.99987 9.53333,3.55332 18.83333,6.75557 20.66666,7.11612 6.38871,1.25641 14.06739,-0.48501 23.98285,-5.439 z m -394.64949,-2.09274 c 22.9773,-8.308 34.07897,-11.50623 43.78818,-12.61473 4.56132,-0.52076 8.28406,-1.54685 8.27274,-2.28018 -0.0579,-3.75294 -33.51154,-1.21934 -54.72759,4.14478 -6.96666,1.76141 -13.71666,3.44323 -15,3.73739 -3.98116,0.91256 -2.56768,-1.27652 2.33334,-3.61365 8.04885,-3.83823 4.89742,-11.47521 -7.27309,-17.6251 -10.28047,-5.19483 -32.34825,-3.5947 -40.07358,2.90574 -7.38235,6.21184 -4.47601,13.6374 9.29393,23.74546 14.78049,10.84988 26.80755,11.2104 53.38607,1.60029 z m -56.62379,-35.85805 c 9.89817,-8.34186 24.27273,-16.26059 38.29046,-21.09364 4.95,-1.70667 9,-3.56895 9,-4.1384 0,-2.04243 -11.4874,-4.08999 -19.41494,-3.4606 -10.53236,0.8362 -18.92088,4.65893 -27.18383,12.38796 -6.64623,6.21677 -14.73456,19.92741 -14.73456,24.97675 0,3.10708 0.24734,2.95434 14.04287,-8.67207 z m 472.67091,-5.56187 c -3.80718,-11.44056 -9.44717,-19.93226 -16.21183,-24.4089 -5.24013,-3.46776 -6.59404,-3.73276 -19.07127,-3.73276 -15.98096,0 -21.76371,1.18891 -19.43435,3.99562 0.86077,1.03716 6.76372,4.69442 13.11767,8.12726 15.33808,8.28667 25.66847,15.40064 35.47043,24.42651 l 8.08221,7.44229 0.42642,-3.70943 c 0.23453,-2.04019 -0.83614,-7.50345 -2.37928,-12.14059 z m -225.63391,11.08024 c 4.71982,-1.64534 4.7524,-1.72249 7.49179,-17.74348 1.11487,-6.5202 2.25702,-12.08489 2.53809,-12.36597 0.28108,-0.28108 0.88486,2.64513 1.34173,6.50268 1.48025,12.49842 7.8171,17.63913 24.32307,19.73189 14.54269,1.84383 25.58839,0.496 33.48333,-4.08573 3.52482,-2.04559 12.40876,-9.21767 19.7421,-15.93795 12.57591,-11.5246 18,-15.73861 18,-13.98432 0,0.4214 -2.1,3.8845 -4.66667,7.69578 -2.56667,3.81129 -4.66667,8.37119 -4.66667,10.13313 0,3.04582 0.31719,3.16595 6.44368,2.44036 3.74617,-0.44368 13.7239,-4.13253 23.83435,-8.81177 21.93965,-10.15392 34.81455,-14.36132 49.84503,-16.2889 6.53231,-0.83774 11.87694,-1.95584 11.87694,-2.48467 0,-1.90081 -18.17935,-9.21453 -26.66667,-10.72824 -10.40401,-1.85555 -38.93497,-1.92589 -45,-0.11094 -2.38333,0.71321 -4.33333,0.81179 -4.33333,0.21906 0,-1.10147 10.83443,-5.34271 21,-8.22066 3.11667,-0.88235 5.66667,-2.08605 5.66667,-2.6749 0,-4.62104 -69.57119,-16.88709 -102.68804,-18.10487 -17.99676,-0.66177 -20.91976,-0.48154 -22.46923,1.38546 -0.97965,1.18041 -2.37758,7.11103 -3.10651,13.17917 -0.72892,6.06813 -1.56777,11.28297 -1.8641,11.58853 -1.34104,1.38278 -2.03525,-1.69442 -2.78772,-12.357 -1.02053,-14.46109 -2.17947,-15.70546 -15.41011,-16.54608 -22.18134,-1.40932 -32.6526,7.50097 -36.50903,31.06658 -1.06341,6.4982 -1.0982,6.40035 -1.9821,-5.57515 -1.56944,-21.2634 -3.46019,-22.58798 -30.51648,-21.37847 -26.74484,1.19559 -71.84292,10.09851 -106.01733,20.92913 -14.77229,4.68166 -47.74111,17.32477 -47.03036,18.03552 0.2496,0.2496 4.03745,-0.0341 8.41743,-0.63054 17.26807,-2.3513 31.2462,1.3958 60.33921,16.17504 19.58709,9.95024 28.13534,12.54676 30.21709,9.17841 0.41255,-0.66752 -1.34746,-5.16752 -3.91115,-10 -2.56368,-4.83248 -4.21581,-8.78203 -3.6714,-8.77677 0.54441,0.005 7.58984,5.70863 15.65651,12.67415 18.86664,16.29125 29.82942,22.20137 42.71566,23.02836 10.27656,0.65951 22.79709,-2.08196 26.52243,-5.80731 2.71939,-2.71939 5.79983,-13.62193 7.13085,-25.23809 l 1.06945,-9.33334 0.97423,9.85446 c 0.53583,5.41995 1.91272,13.98068 3.05976,19.02383 2.27123,9.98585 4.1744,11.82676 14.81762,14.33295 7.21394,1.69868 21.93081,1.70454 26.78988,0.0107 z m -261.07987,-47.8167 c 75.68659,-31.48942 120.43141,-45.15281 187.99999,-57.4082 12.83333,-2.32767 23.63333,-4.54118 23.99999,-4.91891 0.36667,-0.37773 -5.93333,-0.27265 -13.99999,0.23352 -46.39971,2.91149 -101.93366,16.65112 -160.66666,39.75046 -21.31861,8.38448 -70.10524,32.11911 -76,36.97389 l -3.33333,2.74526 5.33333,-2.1699 c 2.93334,-1.19344 19.43333,-8.0362 36.66667,-15.20612 z m 540.78029,8.92814 c 2.9765,-3.85 5.8319,-7.71424 6.3453,-8.58719 1.3383,-2.27538 -2.761,-5.64314 -19.59861,-16.10119 -66.44478,-41.26971 -140.8667,-64.06569 -232.03131,-71.07286 -23.30566,-1.79135 -78.9034,-1.00961 -101.49568,1.42709 -75.94493,8.19105 -143.47269,27.36111 -205.17567,58.24612 -23.34931,11.68735 -38.16169,20.31108 -38.13945,22.20472 0.0362,3.08213 1.65066,7.54997 2.72818,7.54997 0.60612,0 6.68614,-3.63296 13.51116,-8.07325 35.14993,-22.8682 93.25712,-45.31786 146.26486,-56.50929 43.80804,-9.24911 75.4899,-12.77908 122.93404,-13.69721 66.73506,-1.29146 113.71759,4.75801 162.54353,20.92909 18.08507,5.98975 38.08924,14.37253 36.9696,15.49217 -0.27241,0.27241 -7.352,-1.29964 -15.73244,-3.49343 -37.43505,-9.79958 -65.35528,-15.11206 -87.39193,-16.62839 -6.51487,-0.44828 -13.94522,-1.13961 -16.51189,-1.53629 -2.56667,-0.39667 -4.29451,-0.34556 -3.83966,0.11358 0.45485,0.45915 12.45485,3.18661 26.66666,6.06102 65.73298,13.29484 128.64256,35.63174 177.83965,63.14437 7.33334,4.10104 14.54124,7.4732 16.01757,7.4937 1.68705,0.0234 4.69469,-2.5632 8.09609,-6.96273 z M 449.45867,529.88911 c 60.33955,-29.96061 79.06037,-37.3636 136.38823,-53.93354 36.62688,-10.58656 41.98939,-12.89344 21.39794,-9.2051 -35.57955,6.37302 -118.15157,37.98085 -162.18728,62.08385 -31.15967,17.05528 -31.73243,17.23051 -38.28862,11.71385 -6.38215,-5.37023 -5.41419,-7.33464 7.06602,-14.33987 48.65881,-27.31254 127.35661,-59.7035 188.83167,-77.72058 20.12565,-5.89841 28.67085,-9.83621 21.28572,-9.80887 -11.08055,0.041 -66.82483,17.22378 -109.28571,33.68652 -55.53763,21.53279 -122.66666,54.90791 -122.66666,60.98724 0,2.04155 15.97415,14.64742 18.56121,14.64742 1.33253,0 18.8364,-8.14992 38.89748,-18.11092 z m 562.31473,12.831 c 9.1267,-7.2142 9.8778,-10.17756 3.8881,-15.33823 -5.1934,-4.47459 -38.48806,-22.21959 -62.32822,-33.21898 -39.81466,-18.36971 -110.68277,-44.20385 -144.94086,-52.83649 -9.5872,-2.41586 -21.7785,-3.60131 -20.13507,-1.95788 1.16559,1.16559 14.68454,5.67863 38.16076,12.73921 44.54951,13.39849 78.5275,26.15452 114.74342,43.07705 26.96553,12.60012 70.06457,36.06287 70.54607,38.40464 0.488,2.37379 -7.3867,10.4109 -10.1992,10.40954 -3.08615,-0.001 -16.06051,-6.40678 -30.84179,-15.22623 -30.5795,-18.24567 -67.96105,-34.9031 -101.97815,-45.44204 -14.68484,-4.54955 -71.69973,-19.33068 -74.56377,-19.33068 -3.66219,0 2.87178,2.1493 28.67596,9.43274 68.24923,19.26389 115.44374,38.2021 155.86596,62.54589 23.83459,14.3541 23.54949,14.29605 33.10679,6.74146 z M 774.12781,464.20346 c 3.87676,-8.11416 4.65229,-20.38509 1.83694,-29.06539 -2.78692,-8.59267 -10.4283,-22.91054 -22.01161,-41.24379 -18.29684,-28.95895 -24.08024,-42.61927 -27.94494,-66.00563 -2.3568,-14.26164 -4.5772,-68.6082 -4.63556,-113.46007 -0.0334,-25.67566 -0.35549,-30.55423 -2.13459,-32.33333 -3.08091,-3.08092 -5.73798,-2.5573 -6.7118,1.32268 -0.47181,1.87985 -0.15901,22.40984 0.69511,45.6222 3.87152,105.21577 7.84773,124.21308 35.11513,167.77118 24.0647,38.44197 28.06369,53.75864 19.13032,73.27168 -1.90677,4.16494 -3.44528,7.95011 -3.4189,8.41149 0.11193,1.95819 6.94497,-7.72951 10.0799,-14.29102 z m -43.46119,4.31409 c 10.00014,-4.72138 16.15681,-9.58314 21.53181,-17.00311 4.85214,-6.69818 4.799,-10.69298 -0.21824,-16.4073 -9.73417,-11.08661 -30.80269,-61.58201 -38.84768,-93.10712 l -2.3818,-9.33334 0.68735,9.33334 c 1.68713,22.90914 6.91861,41.54067 19.21693,68.43964 3.57756,7.82486 6.8823,15.77155 7.34386,17.6593 1.60098,6.54789 -1.0348,7.19386 -31.20048,7.6466 -36.51246,0.54799 -35.0951,1.67365 -24.93482,-19.80318 4.25742,-8.99934 10.01054,-23.31792 12.78472,-31.81906 4.82111,-14.77375 10.40368,-40.84909 9.03794,-42.21483 -0.35663,-0.35663 -3.75708,8.38643 -7.55655,19.42901 -11.57824,33.65039 -29.84374,71.61707 -35.1297,73.02064 -6.96484,1.84936 1.64972,21.34755 13.04824,29.53334 10.24407,7.35674 18.04187,9.43623 33.95176,9.05412 12.46525,-0.29938 14.95008,-0.7848 22.66666,-4.42805 z m -85.18427,-32.30251 c 0.86112,-2.60922 7.43179,-15.04271 14.60147,-27.62998 35.15243,-61.71437 37.06447,-70.30644 41.25096,-185.36846 0.66939,-18.39754 0.74973,-35.19754 0.17853,-37.33333 -0.78558,-2.93742 -1.82707,-3.88326 -4.27595,-3.88326 -3.06648,0 -3.28099,0.52796 -4.06313,10 -0.45415,5.5 -0.91034,29.2 -1.01376,52.66667 -0.38685,87.78471 -3.61585,101.82618 -35.83727,155.84043 -18.79606,31.50868 -22.07274,41.23955 -18.96938,56.33389 0.88492,4.30413 1.97876,8.42569 2.43074,9.15902 0.45199,0.73334 1.56662,-4.60087 2.47696,-11.85379 0.91033,-7.25293 2.35971,-15.32196 3.22083,-17.93119 z m -227.52989,24.46664 c 19.52399,-3.47852 37.0506,-14.6286 48.01228,-30.54446 2.77051,-4.02266 5.73289,-7.58086 6.58306,-7.9071 3.7071,-1.42255 9.15298,-11.86613 10.8604,-20.827 3.9753,-20.86316 9.70555,-27.02257 29.1889,-31.37496 3.03563,-0.67813 3.49096,-1.15608 2,-2.09934 -2.65865,-1.68199 -9.94719,-1.56391 -16.03408,0.25977 -6.51269,1.95125 -13.96602,8.1052 -17.01536,14.04898 l -2.3901,4.6588 -1.7285,-5.78151 c -2.37262,-7.93596 -13.27138,-31.05032 -14.20193,-30.11978 -0.41544,0.41544 0.72786,5.46151 2.54067,11.21348 4.35452,13.8167 5.51843,25.6743 3.57862,36.45813 -5.96301,33.14973 -37.02254,56.4039 -74.55973,55.82264 l -11.45338,-0.17735 10.55732,-1.11272 c 46.25308,-4.87497 78.60126,-40.36289 72.53351,-79.57369 -3.54234,-22.89118 -15.71328,-37.94353 -44.42416,-54.94135 -17.52145,-10.37329 -26.54702,-17.00386 -40.66413,-29.87362 -6.9243,-6.31249 -13.62701,-11.47725 -14.8949,-11.47725 -1.26789,0 -3.8332,2.00323 -5.70068,4.45162 -4.24546,5.56608 -14.61609,11.30824 -22.33376,12.36606 -7.23985,0.99233 -20.28601,-2.16378 -29.36093,-7.10298 -9.76199,-5.31314 -22.19282,-17.40629 -29.6439,-28.83863 -3.62907,-5.56815 -6.82311,-9.8991 -7.09788,-9.62433 -0.27477,0.27477 1.04285,3.76 2.92804,7.74497 10.09657,21.34241 27.09563,40.06181 43.93985,48.38667 8.6074,4.25401 11.96272,5.16188 21.01398,5.68584 6.2871,0.36396 13.90232,-0.0827 18.2927,-1.07298 17.24464,-3.88955 32.71409,-1.67863 51.52161,7.36354 20.85039,10.02433 35.74588,24.61138 44.9231,43.99286 3.92153,8.28194 4.41023,10.57753 4.41023,20.71651 0,10.47466 -0.40186,12.21056 -4.93858,21.33334 -5.67631,11.41435 -12.40201,19.94326 -22.58156,28.63583 -18.61554,15.89629 -38.5389,21.27327 -59.03907,15.93365 -10.05824,-2.61984 -11.06843,-3.30506 -8.08677,-5.4853 2.22111,-1.62411 1.91118,-2.00009 -3.6918,-4.47855 -3.36406,-1.48808 -9.31426,-2.94328 -13.22267,-3.23378 -6.98067,-0.51884 -19.26626,-5.10802 -32.43954,-12.11751 l -6.66667,-3.54733 6.66667,6.3311 c 19.53654,18.55317 44.28257,31.41274 69.12209,35.92012 12.58044,2.28284 20.63123,2.27986 33.49705,-0.0124 z m 85.38084,-11.15437 c 9.70848,-4.6163 18.80957,-14.01107 23.8074,-24.5756 2.00305,-4.2341 6.64783,-18.24866 10.32173,-31.14347 10.54434,-37.00894 24.7196,-69.80822 30.16986,-69.80822 0.73609,0 3.00779,2.40902 5.04824,5.35338 8.06742,11.64129 26.70633,20.00688 40.39569,18.13055 6.09255,-0.83508 21.59041,-7.13273 21.59041,-8.7734 0,-0.50891 -3.75,-0.11405 -8.33333,0.87747 -19.94299,4.3143 -39.636,-3.8466 -47.77363,-19.79768 -5.1679,-10.1299 -2.08872,-20.26934 7.94713,-26.16913 5.12211,-3.01115 7.73777,-3.6212 15.52639,-3.6212 6.34981,0 11.18534,0.81871 15.01359,2.54197 3.10587,1.39808 6.05193,2.13706 6.54681,1.64219 0.49487,-0.49488 -1.24031,-3.13876 -3.85595,-5.8753 -8.86362,-9.27328 -9.59686,-13.3877 -4.28539,-24.04643 7.13681,-14.32172 27.18861,-27.42847 52.16449,-34.09703 6.75589,-1.80383 12.98294,-3.712 13.83788,-4.24038 6.5444,-4.04466 -33.52919,-6.16431 -52.78799,-2.79216 -64.47114,11.28865 -108.51507,71.67212 -101.77649,139.53381 2.42389,24.41008 3.11114,22.07294 -6.33875,21.55656 -4.46339,-0.2439 -10.63689,0.23555 -13.71889,1.06545 -7.1491,1.92505 -14.28229,8.08077 -13.05874,11.2693 0.81871,2.13352 1.15141,2.09888 4.4024,-0.45835 5.72986,-4.50711 11.88897,-3.68152 17.98067,2.41018 3.73876,3.73876 5.17647,6.3003 5.17647,9.2228 0,9.35499 -11.86305,28.6045 -24.28584,39.40725 -8.46911,7.36467 -6.08559,8.26997 6.28584,2.38744 z m 518.5527,1.16851 c 11.6942,-2.99085 20.3529,-7.37104 28.1139,-14.22198 l 5.3334,-4.7079 -6,3.35011 c -9.1353,5.10069 -20.9237,8.58641 -32,9.46213 l -10,0.79062 12.7815,-3.27127 c 13.7286,-3.51363 25.5792,-8.27394 32.0265,-12.86481 6.7852,-4.83154 3.5953,-4.08721 -8.5008,1.98351 -18.7997,9.43513 -35.5616,11.01598 -51.71668,4.87753 -21.06015,-8.00223 -33.45486,-26.01408 -33.55407,-48.76041 -0.10847,-24.86715 13.69528,-48.63676 34.06804,-58.66404 11.38491,-5.60357 22.32641,-7.99879 45.27341,-9.9109 21.0547,-1.75442 34.5168,-4.46453 48.0338,-9.66985 12.9542,-4.98862 28.4562,-15.23403 35.5343,-23.48507 10.7757,-12.56131 19.047,-32.53081 20.7505,-50.09825 0.4358,-4.49454 1.1062,-9.67067 1.4896,-11.5025 0.3835,-1.83183 0.3215,-2.95478 -0.1379,-2.49544 -0.4593,0.45933 -2.0087,5.74884 -3.4431,11.75445 -6.8042,28.48794 -23.6795,51.09199 -45.9878,61.59922 -15.8833,7.48107 -31.134,8.02158 -48.597,1.72235 -4.9553,-1.78749 -9.9379,-3.24997 -11.0724,-3.24997 -1.1346,0 -8.262,4.07801 -15.8387,9.06224 -7.5767,4.98424 -19.0788,12.33424 -25.56014,16.33334 -42.12238,25.99024 -60.03217,67.63524 -44.34344,103.11024 5.79916,13.11293 19.44013,25.26714 33.17574,29.55985 8.66518,2.70807 28.16834,2.36667 40.17134,-0.7032 z m -95.53314,-16.63778 4.98042,-4.60864 -7.33333,0.16243 c -4.03334,0.0893 -9.47071,-0.54614 -12.08305,-1.41216 -5.83017,-1.93277 -13.7461,-9.83511 -16.51852,-16.49016 -2.35584,-5.65508 -2.70716,-14.6851 -0.71608,-18.40547 1.43556,-2.68237 8.85114,-5.28429 15.09543,-5.29659 4.95363,-0.01 4.10579,-2.62478 -1.85718,-5.72819 -4.35931,-2.26879 -6.42303,-2.29709 -14.9206,-0.2046 -4.92713,1.21328 -4.79737,-1.42145 0.1972,-4.00425 2.12513,-1.09894 6.66345,-2.62548 10.08515,-3.3923 12.8479,-2.87927 24.48079,7.10006 20.75047,17.80089 -1.395,4.0017 -1.35563,4.08192 0.89754,1.82875 1.52713,-1.52713 2.3077,-4.21902 2.21778,-7.64828 -0.3769,-14.37406 -21.0257,-24.93462 -33.67536,-17.22282 -5.34855,3.26071 -6.12324,2.52622 -7.23483,-6.85941 -0.42212,-3.56411 -2.77897,-12.50203 -5.23745,-19.86204 -2.45848,-7.36002 -3.97602,-13.38185 -3.3723,-13.38185 0.60371,0 5.87102,2.4 11.70513,5.33333 11.66856,5.86684 17.33333,6.82125 17.33333,2.92035 0,-1.32714 -5.43324,-8.67714 -12.07387,-16.33333 -6.64063,-7.65619 -17.06669,-21.42035 -23.16903,-30.58702 -20.91186,-31.41289 -39.42112,-49.07406 -63.54863,-60.63686 -9.58962,-4.5957 -18.09017,-6.66579 -23.88492,-5.81656 -2.68682,0.39375 -2.04165,1.18983 4.90302,6.04982 14.75011,10.32236 14.74617,12.94753 -0.0118,7.85376 -6.44765,-2.22543 -12.85136,-3.45016 -18.03976,-3.45016 -10.1216,0 -21.80964,2.4294 -21.15381,4.3969 0.27125,0.81374 4.43902,2.20778 9.26172,3.09787 16.34925,3.01745 32.07802,13.15411 39.15876,25.23648 5.02856,8.58058 4.67349,12.98814 -1.57018,19.49111 l -5.20482,5.42098 4.66666,-0.84579 c 12.70787,-2.30317 17.234,-2.34898 24.46255,-0.24759 9.11928,2.65105 16.34039,9.26688 17.63252,16.15456 2.06419,11.00308 -8.12862,24.34037 -22.86999,29.92537 -6.81147,2.58064 -9.59075,2.89304 -20.30353,2.2822 -10.40576,-0.59334 -12.16703,-0.4128 -10.89739,1.11702 2.553,3.07617 14.89707,6.47739 22.81675,6.28681 17.79566,-0.42825 39.79813,-14.04788 39.82077,-24.64925 0.0156,-7.28801 6.87317,2.38152 15.35413,21.65004 6.99985,15.90346 11.53942,29.14879 15.93992,46.50863 4.21908,16.64418 8.50362,26.55844 15.45824,35.76978 6.41059,8.49076 13.01784,12.2663 21.60561,12.34596 5.43752,0.0504 7.07054,-0.60513 11.33333,-4.54972 z m -327.87417,-9.49771 c -12.03334,-3.80182 -17.62825,-8.45026 -19.77744,-16.43175 -3.89511,-14.46533 6.72481,-29.48976 20.81359,-29.44583 3.03239,0.009 7.56159,1.39359 11.00948,3.36453 6.80262,3.88862 8.57328,3.33595 4.20599,-1.31281 -7.73689,-8.23555 -27.94934,-6.19993 -37.24484,3.75097 -4.15196,4.4447 -6.9267,15.12449 -5.53395,21.29977 3.09742,13.73356 14.36595,21.97999 30.04845,21.98976 l 6.66666,0.004 z m 229.11069,-0.34822 c 20.36161,-10.3973 18.61218,-39.46803 -2.87517,-47.77732 -9.28351,-3.59 -21.23861,-0.54489 -26.37051,6.71688 l -2.95519,4.18168 3.30572,-2.37747 c 11.36122,-8.17098 18.80068,-8.95284 28.09734,-2.95293 11.76319,7.59177 12.34145,26.42461 1.10176,35.88218 -3.54209,2.98047 -8.65521,5.19813 -19.89338,8.62813 -4.13891,1.26324 -3.61116,1.37504 4.66667,0.98865 6.20169,-0.28948 11.20877,-1.39332 14.92276,-3.2898 z m -29.8459,-48.92054 c 3.02948,-2.59313 8.22652,-5.55276 11.54898,-6.57696 l 6.04083,-1.86219 -5.71979,-0.0929 c -6.04504,-0.0981 -14.07951,3.26034 -17.89603,7.48072 -3.13937,3.47157 -6.38418,11.59289 -6.38418,15.97872 0,3.11498 0.4961,2.64241 3.45102,-3.28735 1.89806,-3.80892 5.92969,-9.04695 8.95917,-11.64007 z M 663.50695,309.96874 c 19.41224,-11.37633 21.68662,-41.40764 3.58832,-47.38062 -7.66543,-2.52981 -19.84437,-0.83889 -26.19906,3.63748 -14.91546,10.50675 -15.73679,35.11007 -1.48567,44.50432 5.8652,3.86631 16.78902,3.52123 24.09641,-0.76118 z m 113.92532,-1.36378 c 2.27988,-2.16605 5.23517,-6.05634 6.56731,-8.64507 3.61635,-7.02763 6.86283,-19.23156 5.83115,-21.92006 -0.82242,-2.1432 -1.13209,-2.06843 -3.30398,0.79767 l -2.3965,3.16251 -6.39848,-6.18994 c -8.31008,-8.03924 -13.38141,-10.47672 -21.79743,-10.47672 -16.92217,0 -26.56993,13.22294 -20.75572,28.44721 4.78651,12.53331 16.24499,19.91694 29.79821,19.20141 7.05757,-0.37259 8.93503,-1.03236 12.45544,-4.37701 z"
       id="path1" />
  </g>
</svg>
